<svg width="16" height="20" viewBox="0 0 16 20" fill="currentColor" xmlns="http://www.w3.org/2000/svg">
    <path d="M0.414018 15.9161C0.472807 15.878 0.915267 15.568 1.35831 14.6303C2.17195 12.9084 2.34273 10.4827 2.34273 8.75098C2.34273 8.74344 2.34288 8.73598 2.34316 8.72848C2.35203 6.43984 3.72245 4.46695 5.68355 3.58176V2.22797C5.68355 0.999453 6.68136 0 7.90784 0H8.09218C9.31866 0 10.3165 0.999453 10.3165 2.22797V3.58168C12.2841 4.46973 13.6573 6.45269 13.6573 8.75098C13.6573 10.4827 13.8281 12.9083 14.6417 14.6303C15.0847 15.568 15.5272 15.8779 15.586 15.9161C15.8337 16.0308 15.9559 16.2956 15.8989 16.564C15.8414 16.8351 15.588 17.022 15.3113 17.022H11.0165C10.9925 18.6681 9.64902 20 7.99999 20C6.35097 20 5.00745 18.6681 4.98347 17.022H0.688665C0.412024 17.022 0.158627 16.8351 0.101088 16.564C0.0441732 16.2956 0.166284 16.0307 0.414018 15.9161ZM9.14456 2.22797C9.14456 1.64668 8.67245 1.17379 8.09214 1.17379H7.90781C7.32749 1.17379 6.85538 1.64668 6.85538 2.22797V3.20129C7.22523 3.12484 7.60808 3.08461 8.00015 3.08461C8.3921 3.08461 8.77484 3.1248 9.14452 3.20117V2.22797H9.14456ZM7.99999 18.8262C9.00284 18.8262 9.82085 18.0209 9.84464 17.022H6.15538C6.17913 18.0208 6.99714 18.8262 7.99999 18.8262ZM5.64062 15.8481C5.64074 15.8481 13.976 15.8481 13.976 15.8481C13.8746 15.6902 13.7714 15.5113 13.6689 15.3091C12.8836 13.7606 12.4854 11.5541 12.4854 8.75098C12.4854 6.27375 10.4733 4.2584 8.00019 4.2584C5.52706 4.2584 3.51499 6.27375 3.51499 8.75293C3.51499 8.76016 3.51488 8.76734 3.5146 8.77453C3.51238 11.5664 3.11421 13.765 2.33109 15.3091C2.22855 15.5113 2.12535 15.6902 2.02402 15.8481H5.64062Z" />
</svg>
