<svg width="120" height="120" viewBox="0 0 120 120" fill="none" xmlns="http://www.w3.org/2000/svg">
    <path d="M1.76471 15.8824C1.76471 8.0854 8.0854 1.76471 15.8824 1.76471H104.118C111.915 1.76471 118.235 8.0854 118.235 15.8824V104.118C118.235 111.915 111.915 118.235 104.118 118.235H15.8824C8.0854 118.235 1.76471 111.915 1.76471 104.118V15.8824Z" fill="currentColor"/>
    <path d="M12.598 61.2678H10.6223V64.3546H12.598V72.1059C12.598 76.4959 13.8924 79.4112 18.2185 79.4112C19.3766 79.4112 20.0238 79.274 20.0238 79.274V76.0501C20.0238 76.0501 19.6151 76.0844 19.3085 76.0844C17.3328 76.0844 16.2769 75.467 16.2769 72.6889V64.3546H19.8876V61.2678H16.2769V57.5294H12.598V61.2678Z" fill="white"/>
    <path d="M25.6598 70.2538C25.6598 66.7554 27.9761 64.1488 31.3143 64.1488C34.6185 64.1488 37.037 66.7212 37.037 70.2195C37.037 73.7178 34.6185 76.2902 31.3143 76.2902C28.0101 76.2902 25.6598 73.7864 25.6598 70.2538ZM21.9128 70.2538C21.9128 75.6728 25.8641 79.617 31.3143 79.617C36.7304 79.617 40.7499 75.6042 40.7499 70.2195C40.7499 64.8348 36.7985 60.822 31.3143 60.822C25.9663 60.822 21.9128 64.8348 21.9128 70.2538Z" fill="white"/>
    <path d="M18.0141 85.7409H12.3255V89.5479H10.5883V94.1781H12.3255V100.523C12.3255 105.874 14.7781 107.829 19.0019 107.829C20.4326 107.829 21.182 107.623 21.182 107.623V102.718C20.8073 102.752 20.5348 102.752 20.2282 102.752C19.0701 102.752 18.0141 102.375 18.0141 100.798V94.1781H21.0458V89.5479H18.0141V85.7409Z" fill="white"/>
    <path d="M40.4811 100.043C40.5152 99.6314 40.5152 99.2541 40.5152 98.9112C40.5152 92.7719 37.4154 89.1021 31.7268 89.1021C26.481 89.1021 22.9384 93.3207 22.9384 98.6025C22.9384 103.919 26.5491 108 32.4421 108C37.0748 108 39.5273 105.085 40.0383 104.021L36.2913 101.106C35.9507 101.621 34.6903 103.027 32.5443 103.027C30.4324 103.027 28.8995 101.655 28.7633 100.043H40.4811ZM31.829 93.7322C33.6003 93.7322 34.6562 94.9669 34.7244 96.4074H28.9336C29.0698 95.1384 29.9555 93.7322 31.829 93.7322Z" fill="white"/>
    <path d="M41.8314 101.964C41.8314 105.874 44.9652 108 48.4738 108C50.3132 108 51.6076 107.486 52.5273 106.56L52.8339 107.554H57.9094V96.4074C57.9094 92.2917 56.3425 89.1021 50.177 89.1021C47.2134 89.1021 44.7949 90.0624 42.8874 91.3314L44.9993 95.1727C46.3959 94.4868 47.9288 94.0409 49.4957 94.0409C51.3351 94.0409 52.2208 94.8983 52.2208 95.9959V96.6475C51.5736 96.3731 50.3473 95.9959 48.7804 95.9959C44.5565 95.9959 41.8314 98.3624 41.8314 101.964ZM47.52 101.758C47.52 100.592 48.5419 99.8372 49.9045 99.8372C51.267 99.8372 52.323 100.523 52.323 101.758C52.323 102.958 51.3011 103.61 49.9385 103.61C48.61 103.61 47.52 102.958 47.52 101.758Z" fill="white"/>
    <path d="M70.1443 102.958C67.5214 102.958 65.7501 101.175 65.7501 98.5339C65.7501 96.1331 67.2489 94.2467 69.9399 94.2467C71.2684 94.2467 72.5287 94.7612 73.5166 95.5843L75.0494 90.7484C73.7891 89.8566 72.0518 89.1021 69.7355 89.1021C64.2172 89.1021 60.0615 93.0463 60.0615 98.5682C60.0615 104.09 64.081 108 69.7696 108C72.0178 108 73.8231 107.211 75.0154 106.388L73.5166 101.689C72.7331 102.341 71.4728 102.958 70.1443 102.958Z" fill="white"/>
    <path d="M87.8408 107.554H93.5294V97.5736C93.5294 93.9037 92.9844 89.1021 87.398 89.1021C85.1498 89.1021 83.651 90.3368 82.9697 91.4V82.757H77.2811V107.554H82.9697V96.819C82.9697 95.3785 83.9235 94.2467 85.4904 94.2467C86.853 94.2467 87.8408 95.1384 87.8408 96.819V107.554Z" fill="white"/>
</svg>
