<svg height="20" viewBox="0 0 20 20" width="20" xmlns="http://www.w3.org/2000/svg">
    <path d="m15.1202786 9.33568541-3.3685101-5.8318259c1.162408-1.29101489 1.553175-2.53256561 1.2019794-3.14097493-1.0832654-1.86974571-11.25309919 4.00165153-10.16983382 5.87634365.32151712.55399873 1.60263917.85078376 3.30915311.50948098l3.37840296 5.85161159c-1.21681863 1.1871401-1.66199618 2.3396553-1.13272954 3.2596889.49958814.8705694 2.94806469.0692499 5.32729139-1.2168186 0 .0049464 0 .0098928.0049464.0148392l1.9587812 3.3932422c.3610884.6232486 1.5581214 2.1121202 1.8697457 1.9340492s-.3808741-1.9637277-.7419626-2.5869762l-1.9587812-3.3932422c-.0049464-.0049465-.0049464-.0098929-.0098928-.0148393 2.3050304-1.4146753 4.2192938-3.1360285 3.7197057-4.00165152-.5292666-.9200336-1.7510317-1.10799745-3.3882958-.65292707z"
          fill="currentColor" transform="matrix(-1 0 0 1 21.2918 0)"/>
</svg>
